<mxfile host="app.diagrams.net" modified="2021-04-25T16:19:57.664Z" agent="5.0 (Windows NT 10.0; Win64; x64) AppleWebKit/537.36 (KHTML, like Gecko) Chrome/89.0.4389.128 Safari/537.36" etag="9Av13SXgN5eZ0O8oVvrH" version="14.6.6" type="github">
  <diagram id="GSbtZA4g-qq83qLWa8c-" name="Page-1">
    <mxGraphModel dx="1108" dy="482" grid="1" gridSize="10" guides="1" tooltips="1" connect="1" arrows="1" fold="1" page="1" pageScale="1" pageWidth="827" pageHeight="1169" math="0" shadow="0">
      <root>
        <mxCell id="0" />
        <mxCell id="1" parent="0" />
        <mxCell id="bRFW5w9SixU7F26I9VoL-3" value="Customer" style="shape=umlActor;verticalLabelPosition=bottom;verticalAlign=top;html=1;" parent="1" vertex="1">
          <mxGeometry x="30" y="415" width="30" height="60" as="geometry" />
        </mxCell>
        <mxCell id="bRFW5w9SixU7F26I9VoL-4" value="" style="html=1;" parent="1" vertex="1">
          <mxGeometry x="140" y="90" width="480" height="710" as="geometry" />
        </mxCell>
        <mxCell id="bRFW5w9SixU7F26I9VoL-5" value="Xtra-Vision Movie Kiosk" style="text;html=1;strokeColor=none;fillColor=none;align=center;verticalAlign=middle;whiteSpace=wrap;rounded=0;" parent="1" vertex="1">
          <mxGeometry x="310" y="90" width="140" height="20" as="geometry" />
        </mxCell>
        <mxCell id="bRFW5w9SixU7F26I9VoL-14" value="Login" style="ellipse;whiteSpace=wrap;html=1;" parent="1" vertex="1">
          <mxGeometry x="190" y="200" width="110" height="40" as="geometry" />
        </mxCell>
        <mxCell id="bRFW5w9SixU7F26I9VoL-16" value="" style="endArrow=none;html=1;exitX=1;exitY=0.3333333333333333;exitDx=0;exitDy=0;exitPerimeter=0;entryX=0;entryY=0.5;entryDx=0;entryDy=0;" parent="1" source="bRFW5w9SixU7F26I9VoL-3" target="bRFW5w9SixU7F26I9VoL-14" edge="1">
          <mxGeometry width="50" height="50" relative="1" as="geometry">
            <mxPoint x="180" y="460" as="sourcePoint" />
            <mxPoint x="230" y="410" as="targetPoint" />
          </mxGeometry>
        </mxCell>
        <mxCell id="bRFW5w9SixU7F26I9VoL-17" value="In this first scenario, the customer is going to successfully log in the system, choose an available movie, proceed to check out and payment complete" style="text;html=1;strokeColor=none;fillColor=none;align=center;verticalAlign=middle;whiteSpace=wrap;rounded=0;" parent="1" vertex="1">
          <mxGeometry x="175" y="50" width="410" height="20" as="geometry" />
        </mxCell>
        <mxCell id="GHbrankDpIzT7OIczr11-1" value="Display &quot;Login Error&quot;" style="ellipse;whiteSpace=wrap;html=1;" vertex="1" parent="1">
          <mxGeometry x="462" y="240" width="110" height="40" as="geometry" />
        </mxCell>
        <mxCell id="GHbrankDpIzT7OIczr11-2" value="Verify Login Information" style="ellipse;whiteSpace=wrap;html=1;" vertex="1" parent="1">
          <mxGeometry x="462" y="140" width="110" height="40" as="geometry" />
        </mxCell>
        <mxCell id="GHbrankDpIzT7OIczr11-3" value="&lt;font style=&quot;font-size: 9px&quot;&gt;&amp;lt;&amp;lt;include&amp;gt;&amp;gt;&lt;/font&gt;" style="endArrow=open;endSize=12;dashed=1;html=1;exitX=1;exitY=0.5;exitDx=0;exitDy=0;entryX=0;entryY=1;entryDx=0;entryDy=0;" edge="1" parent="1" source="bRFW5w9SixU7F26I9VoL-14" target="GHbrankDpIzT7OIczr11-2">
          <mxGeometry width="160" relative="1" as="geometry">
            <mxPoint x="320" y="220" as="sourcePoint" />
            <mxPoint x="480" y="219.5" as="targetPoint" />
          </mxGeometry>
        </mxCell>
        <mxCell id="GHbrankDpIzT7OIczr11-6" value="&lt;font style=&quot;font-size: 9px&quot;&gt;&amp;lt;&amp;lt;extend&amp;gt;&amp;gt;&lt;/font&gt;" style="endArrow=open;endSize=12;dashed=1;html=1;exitX=0;exitY=0.5;exitDx=0;exitDy=0;entryX=1;entryY=1;entryDx=0;entryDy=0;" edge="1" parent="1" source="GHbrankDpIzT7OIczr11-1" target="bRFW5w9SixU7F26I9VoL-14">
          <mxGeometry width="160" relative="1" as="geometry">
            <mxPoint x="760" y="370" as="sourcePoint" />
            <mxPoint x="900" y="410" as="targetPoint" />
          </mxGeometry>
        </mxCell>
        <mxCell id="GHbrankDpIzT7OIczr11-7" value="Choose a movie" style="ellipse;whiteSpace=wrap;html=1;" vertex="1" parent="1">
          <mxGeometry x="190" y="400" width="110" height="40" as="geometry" />
        </mxCell>
        <mxCell id="GHbrankDpIzT7OIczr11-8" value="Verify movie&lt;br&gt;availability" style="ellipse;whiteSpace=wrap;html=1;" vertex="1" parent="1">
          <mxGeometry x="462" y="350" width="110" height="40" as="geometry" />
        </mxCell>
        <mxCell id="GHbrankDpIzT7OIczr11-9" value="&lt;font style=&quot;font-size: 9px&quot;&gt;&amp;lt;&amp;lt;include&amp;gt;&amp;gt;&lt;/font&gt;" style="endArrow=open;endSize=12;dashed=1;html=1;exitX=0.912;exitY=0.242;exitDx=0;exitDy=0;entryX=0;entryY=0.5;entryDx=0;entryDy=0;exitPerimeter=0;" edge="1" parent="1" source="GHbrankDpIzT7OIczr11-7" target="GHbrankDpIzT7OIczr11-8">
          <mxGeometry width="160" relative="1" as="geometry">
            <mxPoint x="310.0000000000043" y="445.7399999999999" as="sourcePoint" />
            <mxPoint x="446.4248696322079" y="399.99602644027084" as="targetPoint" />
          </mxGeometry>
        </mxCell>
        <mxCell id="GHbrankDpIzT7OIczr11-10" value="Display &quot;Movie Unavailable&quot;" style="ellipse;whiteSpace=wrap;html=1;" vertex="1" parent="1">
          <mxGeometry x="462" y="455" width="110" height="40" as="geometry" />
        </mxCell>
        <mxCell id="GHbrankDpIzT7OIczr11-11" value="&lt;font style=&quot;font-size: 9px&quot;&gt;&amp;lt;&amp;lt;extend&amp;gt;&amp;gt;&lt;/font&gt;" style="endArrow=open;endSize=12;dashed=1;html=1;exitX=0;exitY=0.5;exitDx=0;exitDy=0;entryX=1;entryY=1;entryDx=0;entryDy=0;" edge="1" parent="1" source="GHbrankDpIzT7OIczr11-10" target="GHbrankDpIzT7OIczr11-7">
          <mxGeometry width="160" relative="1" as="geometry">
            <mxPoint x="413.11" y="477.93" as="sourcePoint" />
            <mxPoint x="277.0008729652603" y="452.07213562373096" as="targetPoint" />
          </mxGeometry>
        </mxCell>
        <mxCell id="GHbrankDpIzT7OIczr11-14" value="" style="endArrow=none;html=1;exitX=1;exitY=0.3333333333333333;exitDx=0;exitDy=0;exitPerimeter=0;entryX=0;entryY=0.5;entryDx=0;entryDy=0;" edge="1" parent="1" source="bRFW5w9SixU7F26I9VoL-3" target="GHbrankDpIzT7OIczr11-7">
          <mxGeometry width="50" height="50" relative="1" as="geometry">
            <mxPoint x="370" y="320" as="sourcePoint" />
            <mxPoint x="420" y="270" as="targetPoint" />
          </mxGeometry>
        </mxCell>
        <mxCell id="GHbrankDpIzT7OIczr11-16" value="&lt;b&gt;CCT COLLEGE&lt;/b&gt;&lt;br&gt;&lt;br&gt;&lt;b&gt;OOC + SAAD CA&lt;/b&gt;&lt;br&gt;&lt;br&gt;&lt;b&gt;Matheus Barbosa 2019378&lt;/b&gt;&lt;br&gt;&lt;br&gt;&lt;b&gt;Farley Reis &lt;br&gt;2019334&lt;/b&gt;" style="text;html=1;strokeColor=none;fillColor=none;align=center;verticalAlign=middle;whiteSpace=wrap;rounded=0;" vertex="1" parent="1">
          <mxGeometry x="338" y="780" width="150" height="220" as="geometry" />
        </mxCell>
        <mxCell id="GHbrankDpIzT7OIczr11-17" value="Payment" style="ellipse;whiteSpace=wrap;html=1;" vertex="1" parent="1">
          <mxGeometry x="190" y="635" width="110" height="40" as="geometry" />
        </mxCell>
        <mxCell id="GHbrankDpIzT7OIczr11-18" value="Verify Password" style="ellipse;whiteSpace=wrap;html=1;" vertex="1" parent="1">
          <mxGeometry x="457" y="562" width="120" height="45" as="geometry" />
        </mxCell>
        <mxCell id="GHbrankDpIzT7OIczr11-19" value="&lt;font style=&quot;font-size: 9px&quot;&gt;&amp;lt;&amp;lt;include&amp;gt;&amp;gt;&lt;/font&gt;" style="endArrow=open;endSize=12;dashed=1;html=1;exitX=0.912;exitY=0.242;exitDx=0;exitDy=0;entryX=0;entryY=0.5;entryDx=0;entryDy=0;exitPerimeter=0;" edge="1" parent="1" source="GHbrankDpIzT7OIczr11-17" target="GHbrankDpIzT7OIczr11-18">
          <mxGeometry width="160" relative="1" as="geometry">
            <mxPoint x="310.0000000000043" y="680.7399999999999" as="sourcePoint" />
            <mxPoint x="446.4248696322079" y="634.9960264402708" as="targetPoint" />
          </mxGeometry>
        </mxCell>
        <mxCell id="GHbrankDpIzT7OIczr11-20" value="Display &quot;Payment Declined&quot;" style="ellipse;whiteSpace=wrap;html=1;" vertex="1" parent="1">
          <mxGeometry x="462" y="750" width="110" height="40" as="geometry" />
        </mxCell>
        <mxCell id="GHbrankDpIzT7OIczr11-21" value="&lt;font style=&quot;font-size: 9px&quot;&gt;&amp;lt;&amp;lt;extend&amp;gt;&amp;gt;&lt;/font&gt;" style="endArrow=open;endSize=12;dashed=1;html=1;exitX=0;exitY=0.5;exitDx=0;exitDy=0;" edge="1" parent="1" source="GHbrankDpIzT7OIczr11-20" target="GHbrankDpIzT7OIczr11-17">
          <mxGeometry width="160" relative="1" as="geometry">
            <mxPoint x="413.11" y="712.9300000000001" as="sourcePoint" />
            <mxPoint x="277.0008729652603" y="687.0721356237309" as="targetPoint" />
          </mxGeometry>
        </mxCell>
        <mxCell id="GHbrankDpIzT7OIczr11-22" value="Verify Password" style="ellipse;whiteSpace=wrap;html=1;" vertex="1" parent="1">
          <mxGeometry x="430" y="680" width="120" height="45" as="geometry" />
        </mxCell>
        <mxCell id="GHbrankDpIzT7OIczr11-23" value="Display &quot;Incorrect&lt;br&gt;Password&quot;" style="ellipse;whiteSpace=wrap;html=1;" vertex="1" parent="1">
          <mxGeometry x="430" y="630" width="110" height="40" as="geometry" />
        </mxCell>
        <mxCell id="GHbrankDpIzT7OIczr11-25" value="&lt;font style=&quot;font-size: 9px&quot;&gt;&amp;lt;&amp;lt;extend&amp;gt;&amp;gt;&lt;/font&gt;" style="endArrow=open;endSize=12;dashed=1;html=1;exitX=0;exitY=0.5;exitDx=0;exitDy=0;entryX=1;entryY=0.5;entryDx=0;entryDy=0;" edge="1" parent="1" source="GHbrankDpIzT7OIczr11-23" target="GHbrankDpIzT7OIczr11-17">
          <mxGeometry width="160" relative="1" as="geometry">
            <mxPoint x="406.11" y="735" as="sourcePoint" />
            <mxPoint x="320.0008729652601" y="644.1421356237311" as="targetPoint" />
          </mxGeometry>
        </mxCell>
        <mxCell id="GHbrankDpIzT7OIczr11-26" value="&lt;font style=&quot;font-size: 9px&quot;&gt;&amp;lt;&amp;lt;include&amp;gt;&amp;gt;&lt;/font&gt;" style="endArrow=open;endSize=12;dashed=1;html=1;entryX=0;entryY=0.5;entryDx=0;entryDy=0;exitX=1;exitY=1;exitDx=0;exitDy=0;" edge="1" parent="1" source="GHbrankDpIzT7OIczr11-17" target="GHbrankDpIzT7OIczr11-22">
          <mxGeometry width="160" relative="1" as="geometry">
            <mxPoint x="280" y="585" as="sourcePoint" />
            <mxPoint x="441.68" y="545" as="targetPoint" />
          </mxGeometry>
        </mxCell>
        <mxCell id="GHbrankDpIzT7OIczr11-29" value="" style="endArrow=none;html=1;exitX=1;exitY=0.3333333333333333;exitDx=0;exitDy=0;exitPerimeter=0;entryX=0;entryY=0.5;entryDx=0;entryDy=0;" edge="1" parent="1" source="bRFW5w9SixU7F26I9VoL-3" target="GHbrankDpIzT7OIczr11-17">
          <mxGeometry width="50" height="50" relative="1" as="geometry">
            <mxPoint x="430" y="520" as="sourcePoint" />
            <mxPoint x="480" y="470" as="targetPoint" />
          </mxGeometry>
        </mxCell>
      </root>
    </mxGraphModel>
  </diagram>
</mxfile>
